<?xml version="1.0" standalone="no"?>
<!DOCTYPE svg PUBLIC "-//W3C//DTD SVG 1.1//EN" "http://www.w3.org/Graphics/SVG/1.1/DTD/svg11.dtd" >
<svg>
<metadata>
Created by FontForge 20120731 at Sun Aug  7 04:21:26 2016
 By ,,,
Copyright (c)2014 Commercial Type.
</metadata>
<defs>
<font id="MarianText1757Web-Roman" horiz-adv-x="196" >
  <font-face 
    font-family="Marian Text 1757 Web"
    font-weight="400"
    font-stretch="normal"
    units-per-em="1000"
    panose-1="0 0 0 0 0 0 0 0 0 0"
    ascent="800"
    descent="-200"
    x-height="450"
    cap-height="700"
    bbox="-149 -318 1105 738"
    underline-thickness="26"
    underline-position="-204"
    unicode-range="U+000D-201D"
  />
<missing-glyph 
 />
    <glyph glyph-name=".notdef" 
 />
    <glyph glyph-name=".null" horiz-adv-x="0" 
 />
    <glyph glyph-name="nonmarkingreturn" unicode="&#xd;" 
 />
    <glyph glyph-name="NULL" horiz-adv-x="0" 
 />
    <glyph glyph-name="NULL" horiz-adv-x="0" 
 />
    <glyph glyph-name="space" unicode=" " 
 />
    <glyph glyph-name="comma" unicode="," horiz-adv-x="249" 
d="M150 34q0 33 -14.5 50t-40.5 17q-8 0 -15 -1.5t-12 -3.5l-10 -5l-11 25q5 3 13 7q7 3 16 5.5t22 2.5q14 0 29.5 -4t28.5 -15t21.5 -30t8.5 -49q0 -58 -34 -105t-90 -82l-17 26q46 29 75.5 71.5t29.5 90.5z" />
    <glyph glyph-name="hyphen" unicode="-" horiz-adv-x="330" 
d="M73 220v27h184v-27h-184z" />
    <glyph glyph-name="period" unicode="." horiz-adv-x="214" 
d="M114 -10q-12 0 -21.5 8.5t-9.5 22.5t9.5 22.5t21.5 8.5t21.5 -8.5t9.5 -22.5t-9.5 -22.5t-21.5 -8.5z" />
    <glyph glyph-name="zero" unicode="0" horiz-adv-x="556" 
d="M47 225q0 50 17 93t47.5 74.5t73 49.5t93.5 18t93.5 -18t73 -49.5t47.5 -74.5t17 -93t-17 -93t-47.5 -74.5t-73 -49.5t-93.5 -18t-93.5 18t-73 49.5t-47.5 74.5t-17 93zM83 225q0 -42 13.5 -79t38.5 -65t61.5 -44.5t81.5 -16.5t81 16.5t61.5 44.5t39 65t13.5 79t-13.5 79
t-38.5 65t-61.5 44.5t-81.5 16.5t-81.5 -16.5t-61.5 -44.5t-38.5 -65t-13.5 -79z" />
    <glyph glyph-name="one" unicode="1" horiz-adv-x="321" 
d="M67 27h91v387q-23 -9 -52 -18.5t-64 -18.5v30q37 10 69 20t59 23h24v-423h90v-27h-217v27z" />
    <glyph glyph-name="two" unicode="2" horiz-adv-x="452" 
d="M370 -10h-332v21q15 10 35.5 23t45 28.5t50.5 33t51 36.5q30 24 57.5 47.5t47.5 48t32 51.5t12 57q0 43 -29 68.5t-91 25.5q-38 0 -66.5 -10t-48 -26.5t-29 -38.5t-9.5 -46q0 -28 14 -43.5t38 -15.5q21 0 33 11t20 29l29 -13q-11 -26 -31 -41.5t-53 -15.5q-34 0 -60 20.5
t-26 68.5q0 31 12.5 58.5t37 48t59.5 32.5t80 12q78 0 117 -32.5t39 -91.5q0 -33 -13.5 -63t-37 -58t-53.5 -53.5t-63 -50.5q-38 -29 -77 -53t-68 -41h310l-9 -89h-30z" />
    <glyph glyph-name="three" unicode="3" horiz-adv-x="487" 
d="M209 -211q-50 0 -85 12t-57.5 31.5t-33 44t-10.5 49.5q0 17 4.5 33.5t14.5 31.5l25 -17q-12 -21 -12 -46q0 -20 9 -39.5t27.5 -35t47.5 -25t70 -9.5q50 0 88 15t64 41t39 60.5t13 74.5q0 63 -40 100.5t-110 37.5q-14 0 -27 -3.5t-24 -8.5l-78 -42l-12 24l129 70
q26 14 49 29t39.5 32t26 38t9.5 47q0 45 -30.5 70.5t-90.5 25.5q-29 0 -56 -6.5t-47.5 -20t-32.5 -34.5t-12 -49q0 -26 12 -43.5t36 -17.5q7 0 14 2t21 7l8 -24q-15 -7 -25 -9.5t-21 -2.5q-34 0 -56.5 22t-22.5 66q0 35 15 61.5t40 44t58 26t69 8.5q74 0 115.5 -32t41.5 -92
q0 -57 -35.5 -92.5t-90.5 -63.5l-20 -10q3 1 7 1h6q39 0 70.5 -12t54 -33.5t34.5 -51t12 -64.5q0 -47 -16 -87.5t-46.5 -70t-75.5 -46.5t-102 -17z" />
    <glyph glyph-name="four" unicode="4" horiz-adv-x="507" 
d="M214 -193h97v198h-268v18l276 470h28v-461h148v-27h-148v-198h106v-27h-239v27zM311 420l-228 -388h228v388z" />
    <glyph glyph-name="five" unicode="5" horiz-adv-x="456" 
d="M188 -211q-84 0 -127 36.5t-43 90.5q0 8 1.5 17.5t5.5 17.5l30 -4q-4 -9 -4.5 -16.5t-0.5 -14.5q0 -42 35 -69.5t103 -27.5q43 0 80.5 13t65 38.5t43 62.5t15.5 85q0 41 -11.5 71.5t-31 51t-46 30.5t-56.5 10q-58 0 -93 -29t-47 -71l-32 9l60 361q56 -12 96.5 -17
t70.5 -5q27 0 37 13q13 14 11 46h30q-1 -25 -5 -41t-11 -27q-11 -14 -27 -17.5t-35 -3.5q-32 0 -66.5 3.5t-74.5 11.5l-44 -264q19 26 51.5 43.5t80.5 17.5q34 0 66.5 -10.5t57.5 -34t40 -60t15 -88.5q0 -57 -19 -99.5t-51.5 -71.5t-76 -43.5t-93.5 -14.5z" />
    <glyph glyph-name="six" unicode="6" horiz-adv-x="512" 
d="M466 214q0 -46 -13.5 -87t-39.5 -71.5t-64.5 -48t-89.5 -17.5q-53 0 -92 19.5t-65 53t-39 79t-13 97.5q0 86 18.5 163t53.5 134.5t85.5 91t115.5 33.5q43 0 75.5 -11.5t60.5 -35.5l-18 -26q-47 43 -118 43q-51 0 -90.5 -25t-68.5 -67.5t-47 -98t-26 -116.5q26 54 70.5 80
t101.5 26q42 0 79 -14t64.5 -41.5t43.5 -68t16 -92.5zM430 214q0 43 -12 77.5t-34 58.5t-53 37t-68 13q-53 0 -96 -25.5t-68 -74.5q-5 -9 -9 -23t-4 -38q0 -43 9.5 -82.5t30.5 -70t53.5 -48.5t79.5 -18q44 0 76 16t53 42.5t31.5 61.5t10.5 74z" />
    <glyph glyph-name="seven" unicode="7" horiz-adv-x="449" 
d="M373 423h-288l-9 -162h-32l13 225h32l-2 -36h326v-18l-223 -643h-37z" />
    <glyph glyph-name="eight" unicode="8" horiz-adv-x="465" 
d="M234 -10q-46 0 -81.5 13t-59.5 35.5t-36 53t-12 65.5t14 63.5t36.5 52t49 41.5t52.5 32q-23 12 -46.5 26.5t-42 34t-30.5 45t-12 61.5q0 35 14.5 62.5t38.5 46.5t54 29t61 10q40 0 71.5 -11t53.5 -29.5t33.5 -44.5t11.5 -56q0 -34 -13.5 -60.5t-33.5 -47.5t-44.5 -37
t-46.5 -29q25 -14 52 -30t49.5 -38t37.5 -51t15 -68q0 -75 -48.5 -122t-137.5 -47zM102 513q0 -33 12.5 -56.5t32 -40.5t42.5 -29.5t44 -23.5q18 10 41.5 23.5t44.5 32t35 43.5t14 58q0 22 -8.5 42t-25.5 35.5t-42 24.5t-58 9q-26 0 -49.5 -8.5t-42 -24t-29.5 -37t-11 -48.5
zM234 20q38 0 66 11t47 29.5t28 44t9 54.5q0 36 -15.5 62.5t-38.5 46.5t-50 34.5t-51 26.5q-24 -12 -50 -28.5t-48 -37.5t-36 -47.5t-14 -58.5q0 -28 9.5 -53t28 -43.5t47.5 -29.5t68 -11z" />
    <glyph glyph-name="nine" unicode="9" horiz-adv-x="512" 
d="M82 237q0 -88 45.5 -137.5t119.5 -49.5q56 0 102 28.5t67 79.5q4 10 7 23t3 33q0 39 -10 77.5t-31 69.5t-54.5 50t-79.5 19q-44 0 -76 -16.5t-52.5 -44t-30.5 -62t-10 -70.5zM188 -211q-42 0 -75.5 11t-60.5 38l19 25q19 -19 48 -31.5t70 -12.5q57 0 98.5 22.5t69.5 62.5
t43.5 95t21.5 121q-29 -51 -76.5 -75.5t-101.5 -24.5q-41 0 -77 14t-63 41.5t-42.5 68t-15.5 93.5q0 45 13.5 85t39.5 71t64 49t88 18q52 0 91.5 -20t66 -54.5t40 -81t13.5 -98.5q0 -95 -16 -172t-49 -131.5t-85 -84t-124 -29.5z" />
    <glyph glyph-name="A" unicode="A" horiz-adv-x="778" 
d="M387 649l-151 -386h301zM234 0h-217v27h92l267 682h24l269 -682h92v-27h-227v27h97l-83 208h-323l-82 -208h91v-27z" />
    <glyph glyph-name="B" unicode="B" horiz-adv-x="652" 
d="M139 673h-106v27h304q49 0 89 -8.5t68.5 -27.5t44.5 -49.5t16 -74.5q0 -66 -32.5 -107t-89.5 -57v-1q27 -3 57 -14t55.5 -33t42.5 -54t17 -77q0 -99 -64 -148t-172 -49h-336v27h106v646zM519 539q0 37 -13.5 62.5t-37.5 41.5t-57.5 23t-73.5 7h-162v-286h186q48 0 84 17
q37 18 55.5 52.5t18.5 82.5zM369 27q92 0 146 42.5t54 127.5q0 56 -31.5 96t-94.5 57q-18 5 -39.5 7.5t-45.5 2.5h-183v-333h194z" />
    <glyph glyph-name="C" unicode="C" horiz-adv-x="751" 
d="M649 145q-13 -30 -35 -58.5t-54.5 -51t-75.5 -36t-97 -13.5q-78 0 -140.5 28.5t-107 77.5t-68.5 115.5t-24 141.5t24 141.5t69 116t108.5 78.5t143.5 29q54 0 96 -13t73.5 -35t53 -51t34.5 -62v126h30v-227h-28q-7 48 -23.5 88t-43.5 70q-33 36 -81 56t-111 20
q-74 0 -131.5 -27.5t-97 -74t-60 -107.5t-20.5 -128t20.5 -128t59.5 -107t95.5 -73t128.5 -27q56 0 102 16.5t80 46.5t55 71t27 90h28v-217h-30v124z" />
    <glyph glyph-name="D" unicode="D" horiz-adv-x="774" 
d="M33 27h106v646h-106v27h314q96 0 167 -26t118.5 -72.5t71 -111t23.5 -140.5t-23.5 -140.5t-70.5 -111t-118.5 -72.5t-167.5 -26h-314v27zM175 673v-646h172q89 0 154 25t107 68.5t62.5 102.5t20.5 127t-20 127t-62 102.5t-107 68.5t-155 25h-172z" />
    <glyph glyph-name="E" unicode="E" horiz-adv-x="640" 
d="M32 27h107v646h-107v27h520v-192h-32v165h-345v-289h227v115h32v-258h-32v116h-227v-330h376v199h32v-226h-551v27z" />
    <glyph glyph-name="F" unicode="F" horiz-adv-x="608" 
d="M32 27h107v646h-107v27h520v-203h-32v176h-345v-299h222v110h32v-247h-32v110h-222v-320h112v-27h-255v27z" />
    <glyph glyph-name="G" unicode="G" horiz-adv-x="798" 
d="M681 71q-18 -15 -44.5 -30t-61 -27t-76 -20t-89.5 -8q-90 0 -157.5 29t-113.5 78.5t-69 116.5t-23 144q0 76 25 142t70.5 114.5t109 76t139.5 27.5q54 0 96.5 -13.5t73 -36t50.5 -51t31 -59.5v135h30v-237h-28q-5 48 -21.5 86.5t-41.5 67.5q-35 40 -84 60t-108 20
q-69 0 -125.5 -26.5t-96.5 -71.5t-62 -105.5t-22 -128.5q0 -69 20 -131t60.5 -108.5t102.5 -73.5t145 -27q43 0 80 7t67 17.5t52 23t35 23.5v203h-129v27h270v-27h-105v-217z" />
    <glyph glyph-name="H" unicode="H" horiz-adv-x="816" 
d="M32 27h107v646h-107v27h242v-27h-99v-289h466v289h-99v27h242v-27h-107v-646h107v-27h-242v27h99v329h-466v-329h99v-27h-242v27z" />
    <glyph glyph-name="I" unicode="I" horiz-adv-x="314" 
d="M32 27h107v646h-107v27h250v-27h-107v-646h107v-27h-250v27z" />
    <glyph glyph-name="J" unicode="J" horiz-adv-x="330" 
d="M6 -269q-69 0 -105.5 28.5t-49.5 71.5l28 11q11 -35 41.5 -58t85.5 -23q43 0 72 16t47 47t25.5 75.5t7.5 101.5v672h-107v27h249v-27h-106v-672q0 -139 -45.5 -204.5t-142.5 -65.5z" />
    <glyph glyph-name="K" unicode="K" horiz-adv-x="737" 
d="M32 27h107v646h-107v27h243v-27h-100v-356l337 356h-78v27h230v-27h-112l-287 -303l341 -343h109v-27h-256v27h100l-317 319l-67 -72v-247h100v-27h-243v27z" />
    <glyph glyph-name="L" unicode="L" horiz-adv-x="650" 
d="M32 27h107v646h-107v27h259v-27h-116v-646h376v189h32v-216h-551v27z" />
    <glyph glyph-name="M" unicode="M" horiz-adv-x="927" 
d="M32 0v27h107v646h-107v27h150l280 -630l281 630h151v-27h-106v-646h106v-27h-249v27h107v616l-278 -623h-25l-278 625v-618h106v-27h-245z" />
    <glyph glyph-name="N" unicode="N" horiz-adv-x="813" 
d="M644 -2l-473 656v-627h112v-27h-251v27h107v647h-108v27h147l471 -650v622h-119v27h257v-27h-106v-676z" />
    <glyph glyph-name="O" unicode="O" horiz-adv-x="814" 
d="M407 -14q-80 0 -146.5 28t-114 77t-73.5 115.5t-26 143.5t26 143.5t73.5 115.5t114 77t146.5 28t146.5 -28t114 -77t73.5 -115.5t26 -143.5t-26 -143.5t-73.5 -115.5t-114 -77t-146.5 -28zM407 686q-74 0 -134 -26.5t-102 -72t-65 -107t-23 -130.5t23 -130.5t65 -107
t102 -72t134 -26.5t134 26.5t102 72t65 107t23 130.5t-23 130.5t-65 107t-102 72t-134 26.5z" />
    <glyph glyph-name="P" unicode="P" horiz-adv-x="614" 
d="M32 27h107v646h-107v27h315q52 0 94.5 -12t72.5 -35.5t46.5 -58.5t16.5 -81q0 -45 -17.5 -81t-49 -60.5t-75 -37.5t-94.5 -13h-166v-294h110v-27h-253v27zM175 673v-325h166q44 0 81 11.5t63.5 32.5t41 51.5t14.5 69.5q0 78 -51.5 119t-142.5 41h-172z" />
    <glyph glyph-name="Q" unicode="Q" horiz-adv-x="814" 
d="M407 686q-74 0 -134 -26.5t-102 -72t-65 -107t-23 -130.5t23 -130.5t65 -107t102 -72t134 -26.5t134 26.5t102 72t65 107t23 130.5t-23 130.5t-65 107t-102 72t-134 26.5zM766 -318q-45 0 -82.5 10t-71 26.5t-64.5 38.5t-63 47q-26 20 -51.5 38t-51.5 32q-27 -34 -58 -59
t-73 -25q-33 0 -57 17t-24 51q0 31 25 52t79 21q27 0 52 -5.5t48 -15.5q15 20 30.5 40t33.5 37q-8 -1 -15 -1h-16q-80 0 -146.5 28t-114 77t-73.5 115.5t-26 143.5t26 143.5t73.5 115.5t114 77t146.5 28t146.5 -28t114 -77t73.5 -115.5t26 -143.5q0 -66 -19.5 -125
t-55.5 -105.5t-86.5 -79t-113.5 -45.5q-26 -15 -48 -41.5t-44 -55.5q27 -14 52 -32t51 -38q30 -23 59 -44t60.5 -37t67 -25.5t77.5 -9.5q56 0 91 17t55 46t29 67t14 80h31q-5 -48 -16.5 -91.5t-36 -76.5t-65 -52.5t-103.5 -19.5zM255 -182q30 0 54 20t47 48q-40 17 -83 17
q-30 0 -50.5 -10.5t-20.5 -34.5q0 -21 15.5 -30.5t37.5 -9.5z" />
    <glyph glyph-name="R" unicode="R" horiz-adv-x="733" 
d="M175 673v-318h175q91 0 135.5 44t44.5 121q0 73 -45 113t-129 40h-181zM285 0h-253v27h107v646h-107v27h324q97 0 153.5 -46t56.5 -134q0 -42 -13 -77.5t-38.5 -61t-62 -39.5t-83.5 -14h-2q22 -29 51 -63t60 -68.5t62 -66.5t57 -57q14 -14 25.5 -22.5t22.5 -14t24.5 -7.5
t31.5 -2h45v-27h-57q-18 0 -33 2.5t-28.5 8t-26.5 15.5t-29 25q-29 27 -63 63t-68 73.5t-65 74.5t-53 66h-148v-301h110v-27z" />
    <glyph glyph-name="S" unicode="S" horiz-adv-x="572" 
d="M310 -14q-47 0 -84 13t-64 34.5t-45 49.5t-27 57v-137h-30v230h28q4 -44 20 -83.5t44 -69.5t67.5 -48t90.5 -18q32 0 62.5 8t54 26t38 46.5t14.5 69.5q0 54 -30.5 90.5t-104.5 72.5q-36 18 -68.5 32t-70.5 33q-66 34 -96.5 71t-30.5 90q0 40 14.5 70.5t39 50.5t57 30
t68.5 10q41 0 72.5 -11.5t54 -30.5t37 -43.5t22.5 -49.5v120h30v-193h-28q-20 94 -70 137t-119 43q-61 0 -101.5 -32.5t-40.5 -97.5q0 -40 23 -72t82 -61q38 -20 72 -35t69 -33q40 -20 69.5 -39.5t48.5 -41.5t28 -48.5t9 -60.5q0 -50 -18.5 -84.5t-47.5 -55.5t-65.5 -30
t-73.5 -9z" />
    <glyph glyph-name="T" unicode="T" horiz-adv-x="746" 
d="M248 27h107v646h-273v-171h-32v198h646v-198h-32v171h-273v-646h107v-27h-250v27z" />
    <glyph glyph-name="U" unicode="U" horiz-adv-x="818" 
d="M409 -14q-55 0 -101 10.5t-81 33.5q-44 29 -67.5 78.5t-23.5 123.5v441h-107v27h253v-27h-110v-441q0 -121 72 -173q30 -23 71.5 -33t93.5 -10q59 0 104 13t76 41q58 53 58 162v441h-101v27h243v-27h-106v-441q0 -64 -18 -110t-52 -75q-36 -32 -88 -46.5t-116 -14.5z" />
    <glyph glyph-name="V" unicode="V" horiz-adv-x="768" 
d="M104 673h-92v27h229v-27h-101l245 -623l245 623h-91v27h217v-27h-92l-267 -682h-24z" />
    <glyph glyph-name="W" unicode="W" horiz-adv-x="1121" 
d="M320 -9l-218 682h-86v27h215v-27h-94l200 -623l209 643h29l212 -641l199 621h-96v27h215v-27h-85l-218 -682h-31l-211 640l-209 -640h-31z" />
    <glyph glyph-name="X" unicode="X" horiz-adv-x="782" 
d="M22 27h104l248 341l-218 305h-110v27h264v-27h-114l200 -278l202 278h-101v27h247v-27h-109l-223 -307l241 -339h107v-27h-254v27h107l-223 312l-227 -312h116v-27h-257v27z" />
    <glyph glyph-name="Y" unicode="Y" horiz-adv-x="676" 
d="M454 673v27h215v-27h-94l-223 -343v-303h100v-27h-236v27h100v303l-216 343h-93v27h225v-27h-94l198 -313l205 313h-87z" />
    <glyph glyph-name="Z" unicode="Z" horiz-adv-x="669" 
d="M45 8l505 675h-422v-164h-32v191h499v-18l-505 -675h464v194h32v-221h-541v18z" />
    <glyph glyph-name="a" unicode="a" horiz-adv-x="471" 
d="M387 -10q-27 0 -45.5 12.5t-18.5 52.5v3q-27 -26 -66.5 -47t-92.5 -21q-32 0 -54.5 9.5t-36 24.5t-19.5 34t-6 38q0 44 31 73t75 52q45 23 87 42t82 36v64q0 38 -27.5 52.5t-77.5 14.5q-45 0 -81 -17t-53 -51l-31 13q23 46 65.5 65.5t99.5 19.5q69 0 105 -21.5t36 -75.5
v-305q0 -38 31 -38q13 0 24 7t19 25l22 -15q-9 -24 -27.5 -35.5t-40.5 -11.5zM164 20q53 0 92 21.5t67 47.5v179q-35 -15 -75 -33t-82 -41q-35 -19 -58.5 -41t-23.5 -57q0 -12 3 -25.5t12 -25t24.5 -18.5t40.5 -7z" />
    <glyph glyph-name="b" unicode="b" horiz-adv-x="546" 
d="M276 -10q-54 0 -90.5 15.5t-57.5 38.5v-44l-36 -10v710l-83 -13v28l96 15h23v-342q23 35 65.5 53.5t95.5 18.5q48 0 88.5 -16.5t70 -47t46.5 -74t17 -97.5q0 -56 -18.5 -99.5t-51 -73.5t-75 -46t-90.5 -16zM276 20q42 0 78.5 14.5t63.5 41.5t42 65t15 84t-13.5 84
t-37.5 65t-58.5 41.5t-76.5 14.5q-40 0 -71.5 -10.5t-52.5 -26.5q-17 -13 -27 -28.5t-10 -35.5v-244q20 -29 60 -47t88 -18z" />
    <glyph glyph-name="c" unicode="c" horiz-adv-x="491" 
d="M277 460q73 0 113 -30.5t49 -69.5l-31 -9q-5 16 -15 30t-26 25t-38 17.5t-52 6.5q-45 0 -82.5 -14.5t-65 -41.5t-43 -64.5t-15.5 -83.5q0 -44 13 -81.5t37.5 -65.5t60.5 -43.5t82 -15.5q60 0 98 23.5t61 55.5l23 -19q-26 -36 -69.5 -63t-112.5 -27q-51 0 -93 17
t-72.5 47.5t-47 74t-16.5 97.5t19 97.5t52 73.5t77 46.5t94 16.5z" />
    <glyph glyph-name="d" unicode="d" horiz-adv-x="571" 
d="M420 55q-19 -25 -57.5 -45t-97.5 -20q-48 0 -90 16.5t-73 47t-49 74t-18 97.5q0 60 21 104t54.5 73.5t76.5 43.5t88 14q58 0 92.5 -19t51.5 -43v303l-87 -14v28l100 15h23v-657l3 -56l93 13v-27l-106 -15h-22zM398 65q21 21 21 51v205q0 24 -4.5 36.5t-16.5 26.5
q-16 18 -48 32t-77 14q-40 0 -76.5 -13t-64.5 -38.5t-44.5 -64t-16.5 -89.5q0 -46 14 -84t40 -65t62.5 -41.5t80.5 -14.5q43 0 76.5 12.5t53.5 32.5z" />
    <glyph glyph-name="e" unicode="e" horiz-adv-x="485" 
d="M73 258q-1 -8 -1.5 -16.5t-0.5 -16.5q0 -43 10.5 -80.5t33 -65t57 -43.5t81.5 -16q59 0 100 22t61 51l25 -16q-26 -37 -71.5 -62t-114.5 -25q-53 0 -93.5 17t-68.5 48t-42 74t-14 96q0 49 16.5 92t45.5 75t70 50t90 18q45 0 79.5 -13t58 -36.5t35 -56t11.5 -70.5v-26
h-368zM258 430q-32 0 -61 -10.5t-52 -29t-40 -45t-26 -57.5h326q-1 28 -10 54t-27 45.5t-45.5 31t-64.5 11.5z" />
    <glyph glyph-name="f" unicode="f" horiz-adv-x="340" 
d="M33 27h83v394h-103v29h103v110q0 51 15.5 84.5t40.5 54.5q27 23 60.5 31t71.5 8q43 0 77.5 -12t62.5 -39l-18 -22q-26 23 -58.5 33t-67.5 10q-32 0 -58 -7.5t-48 -25.5q-42 -34 -42 -116v-109h162v-29h-162v-394h85v-27h-204v27z" />
    <glyph glyph-name="g" unicode="g" horiz-adv-x="537" 
d="M383 291q0 31 -11 57t-30.5 45t-46.5 29t-59 10t-59 -10.5t-46.5 -29t-30.5 -44.5t-11 -57t11 -57t30.5 -44.5t46.5 -29t59 -10.5t59 10t46.5 29t30.5 44.5t11 57.5zM241 -280q-64 0 -107.5 13.5t-70 35.5t-38 48.5t-11.5 53.5q0 30 12 53.5t31 38.5l24 -17
q-14 -14 -22.5 -34t-8.5 -41q0 -22 9.5 -43.5t31.5 -39t59 -28t91 -10.5q31 0 66.5 7t65.5 23t50 42t20 65q0 21 -6.5 39t-21.5 32t-38 22t-56 8h-165q-45 0 -68 20.5t-23 53.5q0 31 21 51t54 31q-39 20 -62.5 57t-23.5 90q0 40 14 71.5t38.5 53t58 33t71.5 11.5
q76 0 125 -41q16 14 37 25.5t51 11.5q13 0 26.5 -3t24.5 -11.5t18 -24t7 -40.5h-33q0 32 -14.5 41.5t-31.5 9.5q-22 0 -37.5 -9t-26.5 -20q36 -44 36 -108q0 -40 -14 -71.5t-39 -53t-58 -33t-71 -11.5q-30 0 -55 7q-38 -5 -59 -22.5t-21 -43.5q0 -18 12.5 -30.5t42.5 -12.5
h165q40 0 70 -10t49.5 -28t29 -42t9.5 -52q0 -47 -23.5 -79t-58.5 -52t-77 -28.5t-79 -8.5z" />
    <glyph glyph-name="h" unicode="h" horiz-adv-x="597" 
d="M29 27h83v673l-83 -13v28l96 15h23v-348q26 30 73 54t106 24q71 0 114.5 -35.5t43.5 -113.5v-284h83v-27h-205v27h86v284q0 61 -33 90t-89 29q-51 0 -91.5 -19.5t-68.5 -45.5q-8 -8 -13.5 -16.5t-5.5 -23.5v-298h84v-27h-203v27z" />
    <glyph glyph-name="i" unicode="i" horiz-adv-x="259" 
d="M125 625q-14 0 -22.5 8.5t-8.5 22.5q0 13 8.5 22t22.5 9q13 0 22 -9t9 -22q0 -14 -9 -22.5t-22 -8.5zM112 27v393l-86 -13v28l99 15h23v-423h82v-27h-201v27h83z" />
    <glyph glyph-name="j" unicode="j" horiz-adv-x="261" 
d="M133 625q-14 0 -22.5 8.5t-8.5 22.5q0 13 8.5 22t22.5 9q13 0 22 -9t9 -22q0 -14 -9 -22.5t-22 -8.5zM1 -280q-42 0 -70.5 11.5t-57.5 34.5l16 25q26 -21 51.5 -31t60.5 -10q66 0 92.5 40t26.5 118v512l-86 -13v28l99 15h23v-542q0 -102 -40.5 -145t-114.5 -43z" />
    <glyph glyph-name="k" unicode="k" horiz-adv-x="526" 
d="M23 27h83v673l-86 -13v28l99 15h23v-497l211 190h-62v27h189v-27h-84l-199 -179l225 -217h86v-27h-207v27h72l-202 194l-29 -26v-168h76v-27h-195v27z" />
    <glyph glyph-name="l" unicode="l" horiz-adv-x="267" 
d="M29 27h87v673l-88 -14v28l101 16h23v-703h86v-27h-209v27z" />
    <glyph glyph-name="m" unicode="m" horiz-adv-x="873" 
d="M29 27h83v339l-5 55l-84 -14v28l96 15h22l6 -68q23 30 62.5 54t97.5 24q56 0 92.5 -23.5t48.5 -61.5q11 16 27 31.5t36.5 27.5t46.5 19t56 7q77 0 112.5 -37t35.5 -106v-290h82v-27h-201v27h83v290q0 53 -25 83t-87 30q-48 0 -80.5 -17.5t-52.5 -37.5q-26 -27 -26 -50
v-298h82v-27h-201v27h83v308q0 45 -29.5 70t-82.5 25q-48 0 -80.5 -17.5t-52.5 -37.5q-26 -27 -26 -50v-298h84v-27h-203v27z" />
    <glyph glyph-name="n" unicode="n" horiz-adv-x="596" 
d="M29 27h83v328l-5 66l-84 -14v28l96 15h22l5 -70q25 31 73 55.5t108 24.5q71 0 114.5 -35.5t43.5 -113.5v-284h83v-27h-205v27h86v284q0 61 -33 90t-89 29q-51 0 -91.5 -19.5t-68.5 -45.5q-8 -8 -13.5 -16.5t-5.5 -23.5v-298h84v-27h-203v27z" />
    <glyph glyph-name="o" unicode="o" horiz-adv-x="532" 
d="M35 225q0 50 17 93t47.5 74.5t73 49.5t93.5 18t93.5 -18t73 -49.5t47.5 -74.5t17 -93t-17 -93t-47.5 -74.5t-73 -49.5t-93.5 -18t-93.5 18t-73 49.5t-47.5 74.5t-17 93zM71 225q0 -42 13.5 -80t39 -66t61.5 -44.5t81 -16.5t81 16.5t61.5 45t39 66t13.5 79.5t-13.5 80
t-39 66t-61.5 44.5t-81 16.5t-81 -16.5t-61.5 -44.5t-39 -66t-13.5 -80z" />
    <glyph glyph-name="p" unicode="p" horiz-adv-x="571" 
d="M299 20q46 0 83 14.5t63 41.5t40.5 65t14.5 85q0 46 -12.5 83.5t-37 64.5t-60 41.5t-81.5 14.5q-41 0 -72 -10.5t-52 -26.5q-17 -13 -27 -28.5t-10 -35.5v-244q19 -29 58 -47t93 -18zM29 -246h83v601l-5 66l-84 -14v28l96 15h22l5 -65q21 35 65 55t101 20
q51 0 92.5 -16.5t70.5 -46.5t45 -73.5t16 -97.5q0 -56 -17.5 -100t-49 -74t-75.5 -46t-96 -16q-56 0 -92.5 15.5t-57.5 38.5v-290h84v-27h-203v27z" />
    <glyph glyph-name="q" unicode="q" horiz-adv-x="554" 
d="M335 -246h84v300q-19 -25 -57.5 -44.5t-96.5 -19.5q-48 0 -90 16.5t-73 47t-49 74t-18 97.5q0 60 21 104t54.5 73.5t76.5 43.5t88 14q59 0 93.5 -20.5t50.5 -45.5v64h36v-704h83v-27h-203v27zM398 65q21 21 21 51v205q0 17 -4.5 33t-16.5 30q-17 19 -48.5 32.5
t-76.5 13.5q-40 0 -76.5 -13t-64.5 -38.5t-44.5 -64t-16.5 -89.5q0 -46 14 -84t40 -65t62.5 -41.5t80.5 -14.5q43 0 76.5 12.5t53.5 32.5z" />
    <glyph glyph-name="r" unicode="r" horiz-adv-x="401" 
d="M29 27h83v330l-5 64l-84 -14v28l96 15h22l6 -78q19 34 52 61t80 27q40 0 61.5 -20.5t25.5 -57.5l-35 -5q-2 25 -14.5 40t-41.5 15q-21 0 -38.5 -8t-32 -19.5t-25 -24.5t-16.5 -22q-10 -16 -12.5 -28t-2.5 -31v-272h84v-27h-203v27z" />
    <glyph glyph-name="s" unicode="s" horiz-adv-x="412" 
d="M224 -10q-31 0 -54.5 7.5t-41 19.5t-29 28t-18.5 34v-79h-26v171h24q7 -78 44 -115.5t100 -37.5q54 0 78.5 24t24.5 62q0 25 -10 42t-26.5 30t-38 22.5t-45.5 19.5q-27 11 -52 21.5t-45 25t-32 34.5t-12 49q0 52 37 82t91 30q49 0 77 -22.5t40 -51.5v64h26v-153h-24
q-6 60 -35.5 97.5t-85.5 37.5q-44 0 -67 -22.5t-23 -58.5q0 -23 9.5 -38t25 -26t36.5 -20t44 -18q29 -12 55.5 -24t46.5 -27.5t32 -37.5t12 -53q0 -53 -36 -85t-102 -32z" />
    <glyph glyph-name="t" unicode="t" horiz-adv-x="369" 
d="M226 -10q-27 0 -49.5 4.5t-38 17t-24.5 34t-9 54.5v321h-80v29h80v112h36v-112h168v-29h-168v-321q0 -46 21.5 -63t63.5 -17q23 0 47 5.5t51 21.5v-30q-21 -12 -45.5 -19.5t-52.5 -7.5z" />
    <glyph glyph-name="u" unicode="u" horiz-adv-x="573" 
d="M426 59q-25 -29 -67.5 -49t-103.5 -20q-73 0 -116.5 31.5t-43.5 109.5v292h-83v27h119v-319q0 -60 32 -85.5t92 -25.5q45 0 85 14.5t63 36.5q14 14 18 26.5t4 27.5v298h-84v27h120v-366l3 -62l86 14v-28l-98 -15h-22z" />
    <glyph glyph-name="v" unicode="v" horiz-adv-x="544" 
d="M81 423h-69v27h190v-27h-85l157 -374l156 374h-84v27h186v-27h-68l-179 -425h-25z" />
    <glyph glyph-name="w" unicode="w" horiz-adv-x="798" 
d="M236 -2l-146 425h-77v27h191v-27h-79l130 -380l133 410h35l132 -409l122 379h-83v27h191v-27h-76l-136 -425h-37l-131 406l-132 -406h-37z" />
    <glyph glyph-name="x" unicode="x" horiz-adv-x="551" 
d="M24 27h73l156 206l-148 190h-77v27h184v-27h-67l128 -164l124 164h-69v27h184v-27h-77l-144 -190l162 -206h74v-27h-184v27h70l-142 180l-136 -180h72v-27h-183v27z" />
    <glyph glyph-name="y" unicode="y" horiz-adv-x="541" 
d="M109 -280q-18 0 -31 3t-22 7q-11 4 -17 11l12 27q8 -5 17 -9q8 -4 18 -6.5t23 -2.5q27 0 42.5 15t26.5 40l80 194l-174 424h-78v27h189v-27h-75l157 -381l157 381h-74v27h175v-27h-68l-261 -628q-19 -45 -43.5 -60t-53.5 -15z" />
    <glyph glyph-name="z" unicode="z" horiz-adv-x="470" 
d="M35 18l331 405h-266l-10 -126h-30l12 153h342v-18l-331 -405h302l5 129h30l-5 -156h-380v18z" />
    <glyph glyph-name="quoteleft" unicode="&#x2018;" horiz-adv-x="208" 
d="M79 579q0 -32 18 -49t50 -19l-4 -29q-43 2 -71.5 24.5t-28.5 70.5t31.5 83.5t91.5 64.5l13 -27q-51 -25 -75.5 -53.5t-24.5 -65.5z" />
    <glyph glyph-name="quoteright" unicode="&#x2019;" horiz-adv-x="208" 
d="M130 624q0 32 -18 49t-50 19l4 29q43 -2 71.5 -24.5t28.5 -70.5t-31.5 -83.5t-91.5 -64.5l-13 27q51 25 75.5 53.5t24.5 65.5z" />
    <glyph glyph-name="quotedblleft" unicode="&#x201c;" horiz-adv-x="394" 
d="M239 579q0 -32 18 -49t50 -19l-4 -29q-43 2 -71.5 24.5t-28.5 70.5t31.5 83.5t91.5 64.5l13 -27q-51 -25 -75.5 -53.5t-24.5 -65.5zM79 579q0 -32 18 -49t50 -19l-4 -29q-43 2 -71.5 24.5t-28.5 70.5t31.5 83.5t91.5 64.5l13 -27q-51 -25 -75.5 -53.5t-24.5 -65.5z" />
    <glyph glyph-name="quotedblright" unicode="&#x201d;" horiz-adv-x="368" 
d="M290 624q0 32 -18 49t-50 19l4 29q43 -2 71.5 -24.5t28.5 -70.5t-31.5 -83.5t-91.5 -64.5l-13 27q51 25 75.5 53.5t24.5 65.5zM130 624q0 32 -18 49t-50 19l4 29q43 -2 71.5 -24.5t28.5 -70.5t-31.5 -83.5t-91.5 -64.5l-13 27q51 25 75.5 53.5t24.5 65.5z" />
    </font>
</defs>
</svg>
